<svg xmlns="http://www.w3.org/2000/svg" width="81.62" height="81.723" viewBox="0 0 81.62 81.723">
  <g id="_1814089_account_user_person_profile_avatar_icon" data-name="1814089_account_user_person_profile_avatar_icon" transform="translate(-8.1 -8.1)">
    <g id="Icon-User" transform="translate(8.1 8.1)">
      <path id="Fill-57" d="M-229.09-188.177a40.835,40.835,0,0,1-40.81-40.862A40.835,40.835,0,0,1-229.09-269.9a40.835,40.835,0,0,1,40.81,40.862,40.835,40.835,0,0,1-40.81,40.862Zm0-77.278a36.534,36.534,0,0,0-36.37,36.416,36.534,36.534,0,0,0,36.37,36.416,36.534,36.534,0,0,0,36.37-36.416,36.534,36.534,0,0,0-36.37-36.416Z" transform="translate(269.9 269.9)"/>
      <path id="Fill-58" d="M-258.037-200.343l-4.363-1.976c1.273-3.054,5.272-4.671,9.817-6.647,4.363-1.976,9.817-4.312,9.817-7.186V-220.1a12.077,12.077,0,0,1-4.545-8.264c-1.273-1.258-3.272-3.593-3.272-6.468a7.967,7.967,0,0,1,1.273-4.132,55.292,55.292,0,0,1-1.091-8.983c0-9.881,6.909-16.349,17.817-16.349,3.091,0,6.909.9,8.908,3.054,4.909.9,8.908,6.647,8.908,13.294a33.042,33.042,0,0,1-1.273,9.522,7.021,7.021,0,0,1,1.091,3.593,7.665,7.665,0,0,1-3.272,6.647,12.17,12.17,0,0,1-4.181,8.084v3.952c0,2.515,4.545,4.132,8.727,5.749,4.909,1.8,10,3.593,11.635,7.725l-4.545,1.617c-.727-2.156-5.091-3.593-8.727-5.03-5.636-1.976-12-4.312-12-10.061v-6.468l1.091-.719a7.443,7.443,0,0,0,3.272-6.288v-1.617l1.454-.539a3.451,3.451,0,0,0,1.636-3.054,2.7,2.7,0,0,0-.727-1.617l-.909-1.078.364-1.258a33.576,33.576,0,0,0,1.273-9.342c0-4.491-2.545-8.623-5.272-8.623h-1.454l-.727-1.258c-.545-.9-2.727-1.8-5.636-1.8-8.181,0-13.09,4.312-13.09,11.678a52.934,52.934,0,0,0,1.273,8.983l.364,1.258-.909.9a3.407,3.407,0,0,0-.727,1.8c0,1.258,1.636,2.875,2.363,3.593l.909.719v1.258a7.769,7.769,0,0,0,3.454,6.108l1.091.719v6.468c0,5.929-6.727,8.983-12.726,11.5-2.545,1.437-6.363,3.234-7.09,4.491" transform="translate(273.322 272.455)"/>
    </g>
  </g>
</svg>
