<svg id="_172506_money_icon" data-name="172506_money_icon" xmlns="http://www.w3.org/2000/svg" width="109.077" height="109.003" viewBox="0 0 109.077 109.003">
  <rect id="Rectangle_32" data-name="Rectangle 32" width="108.533" height="108.533" fill="none"/>
  <path id="Ellipse_4" data-name="Ellipse 4" d="M29.735-2.5c8.359,0,16.242,1.186,22.2,3.34a22.865,22.865,0,0,1,7.064,3.813,9.564,9.564,0,0,1,2.142,2.514,5.938,5.938,0,0,1,0,6.065,9.564,9.564,0,0,1-2.142,2.514,22.865,22.865,0,0,1-7.064,3.813c-5.954,2.154-13.837,3.34-22.2,3.34s-16.242-1.186-22.2-3.34A22.865,22.865,0,0,1,.475,15.745a9.564,9.564,0,0,1-2.142-2.514,5.938,5.938,0,0,1,0-6.065A9.564,9.564,0,0,1,.475,4.652,22.865,22.865,0,0,1,7.539.84C13.493-1.314,21.375-2.5,29.735-2.5Zm0,22.141c7.991,0,15.481-1.117,21.088-3.145,4.941-1.787,7.89-4.141,7.89-6.3s-2.95-4.51-7.89-6.3C45.215,1.873,37.726.756,29.735.756S14.254,1.873,8.646,3.9C3.706,5.688.756,8.042.756,10.2s2.95,4.51,7.89,6.3C14.254,18.524,21.743,19.641,29.735,19.641Z" transform="translate(47.107 2.826)" fill="#d8cd34"/>
  <path id="Path_16" data-name="Path 16" d="M50.807,31.861c-8.378,0-16.277-1.174-22.242-3.3a22.994,22.994,0,0,1-7.076-3.772,9.508,9.508,0,0,1-2.149-2.491,6.022,6.022,0,0,1-.838-3.017V6.128a1.628,1.628,0,1,1,3.256,0V19.276A4.218,4.218,0,0,0,23.589,22.3,20.141,20.141,0,0,0,29.66,25.49C35.282,27.5,42.793,28.6,50.807,28.6S66.331,27.5,71.954,25.49A20.141,20.141,0,0,0,78.024,22.3a4.218,4.218,0,0,0,1.833-3.021V6.128a1.628,1.628,0,0,1,3.256,0V19.276a6.022,6.022,0,0,1-.838,3.017,9.508,9.508,0,0,1-2.149,2.491,22.994,22.994,0,0,1-7.076,3.772C67.083,30.687,59.184,31.861,50.807,31.861Z" transform="translate(25.89 9.211)" fill="#d8cd34"/>
  <path id="Path_17" data-name="Path 17" d="M41.812,38.861A79.46,79.46,0,0,1,27.381,37.6a1.628,1.628,0,1,1,.594-3.2,77.288,77.288,0,0,0,13.837,1.2c8.014,0,15.524-1.106,21.147-3.115A20.141,20.141,0,0,0,69.03,29.3a4.218,4.218,0,0,0,1.833-3.021V13.128a1.628,1.628,0,0,1,3.256,0V26.276a6.022,6.022,0,0,1-.838,3.017,9.508,9.508,0,0,1-2.149,2.491,22.994,22.994,0,0,1-7.076,3.772C58.089,37.687,50.19,38.861,41.812,38.861Z" transform="translate(34.884 17.55)" fill="#d8cd34"/>
  <path id="Path_18" data-name="Path 18" d="M20.128,24.113A1.628,1.628,0,0,1,18.5,22.485V13.128a1.628,1.628,0,1,1,3.256,0v9.357A1.628,1.628,0,0,1,20.128,24.113Z" transform="translate(25.89 17.55)" fill="#d8cd34"/>
  <path id="Path_19" data-name="Path 19" d="M41.246,45.861a80.6,80.6,0,0,1-13.364-1.068,1.628,1.628,0,1,1,.542-3.211A77.339,77.339,0,0,0,41.246,42.6c8.015,0,15.525-1.106,21.147-3.114A20.136,20.136,0,0,0,68.464,36.3,4.219,4.219,0,0,0,70.3,33.276V20.128a1.628,1.628,0,1,1,3.256,0V33.276a6.024,6.024,0,0,1-.838,3.018,9.507,9.507,0,0,1-2.149,2.491,22.99,22.99,0,0,1-7.077,3.772C57.524,44.687,49.624,45.861,41.246,45.861Z" transform="translate(35.45 25.89)" fill="#d8cd34"/>
  <path id="Path_20" data-name="Path 20" d="M41.338,52.861a80.429,80.429,0,0,1-13.537-1.1,1.628,1.628,0,1,1,.55-3.209A77.168,77.168,0,0,0,41.338,49.6c8.015,0,15.525-1.106,21.147-3.114A20.136,20.136,0,0,0,68.556,43.3a4.219,4.219,0,0,0,1.833-3.022V27.128a1.628,1.628,0,0,1,3.256,0V40.276a6.024,6.024,0,0,1-.838,3.018,9.507,9.507,0,0,1-2.149,2.491,22.989,22.989,0,0,1-7.077,3.772C57.615,51.687,49.716,52.861,41.338,52.861Z" transform="translate(35.359 34.229)" fill="#d8cd34"/>
  <path id="Ellipse_5" data-name="Ellipse 5" d="M30.06-2.5C38.51-2.5,46.477-1.279,52.5.938a22.976,22.976,0,0,1,7.136,3.922,9.761,9.761,0,0,1,2.156,2.576,6.136,6.136,0,0,1,0,6.174,9.761,9.761,0,0,1-2.156,2.576A22.976,22.976,0,0,1,52.5,20.11c-6.018,2.217-13.986,3.438-22.435,3.438S13.643,22.327,7.625,20.11A22.976,22.976,0,0,1,.49,16.188a9.761,9.761,0,0,1-2.156-2.576,6.136,6.136,0,0,1,0-6.174A9.761,9.761,0,0,1,.49,4.861,22.976,22.976,0,0,1,7.625.938C13.643-1.279,21.611-2.5,30.06-2.5Zm0,22.792c8.075,0,15.643-1.15,21.31-3.237,5.006-1.844,7.995-4.286,7.995-6.531S56.376,5.838,51.37,3.993C45.7,1.906,38.135.756,30.06.756S14.417,1.906,8.751,3.993C3.745,5.838.756,8.279.756,10.524s2.989,4.686,7.995,6.531C14.417,19.142,21.985,20.292,30.06,20.292Z" transform="translate(2.826 39.944)" fill="#d8cd34"/>
  <path id="Path_21" data-name="Path 21" d="M30.807,48.861c-8.378,0-16.278-1.173-22.242-3.3a22.989,22.989,0,0,1-7.077-3.772A9.508,9.508,0,0,1-.662,39.294,6.024,6.024,0,0,1-1.5,36.276V23.128a1.628,1.628,0,1,1,3.256,0V36.276A4.219,4.219,0,0,0,3.589,39.3a20.136,20.136,0,0,0,6.071,3.193C15.282,44.5,22.792,45.6,30.807,45.6S46.331,44.5,51.954,42.491A20.136,20.136,0,0,0,58.024,39.3a4.219,4.219,0,0,0,1.833-3.022V23.128a1.628,1.628,0,1,1,3.256,0V36.276a6.024,6.024,0,0,1-.838,3.018,9.507,9.507,0,0,1-2.149,2.491,22.99,22.99,0,0,1-7.077,3.772C47.084,47.687,39.185,48.861,30.807,48.861Z" transform="translate(2.063 29.464)" fill="#d8cd34"/>
  <path id="Path_22" data-name="Path 22" d="M30.807,55.861c-8.378,0-16.278-1.173-22.242-3.3a22.99,22.99,0,0,1-7.077-3.772A9.507,9.507,0,0,1-.662,46.294,6.024,6.024,0,0,1-1.5,43.276V30.128a1.628,1.628,0,1,1,3.256,0V43.276A4.219,4.219,0,0,0,3.589,46.3a20.136,20.136,0,0,0,6.071,3.193C15.282,51.5,22.792,52.6,30.807,52.6S46.331,51.5,51.954,49.491A20.136,20.136,0,0,0,58.024,46.3a4.219,4.219,0,0,0,1.833-3.022V30.128a1.628,1.628,0,1,1,3.256,0V43.276a6.024,6.024,0,0,1-.838,3.018,9.507,9.507,0,0,1-2.149,2.491,22.99,22.99,0,0,1-7.077,3.772C47.084,54.687,39.185,55.861,30.807,55.861Z" transform="translate(2.063 37.803)" fill="#d8cd34"/>
  <path id="Path_23" data-name="Path 23" d="M30.807,62.861c-8.378,0-16.278-1.173-22.242-3.3a22.989,22.989,0,0,1-7.077-3.772A9.507,9.507,0,0,1-.662,53.294,6.024,6.024,0,0,1-1.5,50.276V37.128a1.628,1.628,0,0,1,3.256,0V50.276A4.219,4.219,0,0,0,3.589,53.3a20.136,20.136,0,0,0,6.071,3.193C15.282,58.5,22.792,59.6,30.807,59.6S46.331,58.5,51.954,56.491A20.136,20.136,0,0,0,58.024,53.3a4.219,4.219,0,0,0,1.833-3.022V37.128a1.628,1.628,0,0,1,3.256,0V50.276a6.024,6.024,0,0,1-.838,3.018,9.507,9.507,0,0,1-2.149,2.491,22.99,22.99,0,0,1-7.077,3.772C47.084,61.687,39.185,62.861,30.807,62.861Z" transform="translate(2.063 46.142)" fill="#d8cd34"/>
</svg>
