<svg xmlns="http://www.w3.org/2000/svg" width="125.165" height="78.4" viewBox="0 0 125.165 78.4">
  <g id="_3289557_clan_group_partners_peers_people_icon" data-name="3289557_clan_group_partners_peers_people_icon" transform="translate(-6 -21.479)">
    <circle id="Ellipse_6" data-name="Ellipse 6" cx="13.5" cy="13.5" r="13.5" transform="translate(19.165 21.479)" fill="#20c5ba"/>
    <circle id="Ellipse_7" data-name="Ellipse 7" cx="13.5" cy="13.5" r="13.5" transform="translate(91.165 21.479)" fill="#20c5ba"/>
    <path id="Path_24" data-name="Path 24" d="M83.642,83.021V69.611a6.372,6.372,0,0,0-2.682-5.364,33.472,33.472,0,0,0-13.112-6.258A42.678,42.678,0,0,0,56.821,56.2a35.563,35.563,0,0,0-11.026,1.788,41,41,0,0,0-13.112,6.258A6.769,6.769,0,0,0,30,69.611v13.41Z" transform="translate(11.761 16.858)" fill="#20c5ba"/>
    <circle id="Ellipse_8" data-name="Ellipse 8" cx="13.5" cy="13.5" r="13.5" transform="translate(55.165 42.479)" fill="#20c5ba"/>
    <path id="Path_25" data-name="Path 25" d="M103.294,50.246a33.472,33.472,0,0,0-13.112-6.258A42.678,42.678,0,0,0,79.155,42.2a35.563,35.563,0,0,0-11.026,1.788,39.8,39.8,0,0,0-5.364,2.086v.3A18.716,18.716,0,0,1,57.4,59.485a45.289,45.289,0,0,1,13.709,6.854,10.281,10.281,0,0,1,2.384,2.682h32.483V55.611A6.372,6.372,0,0,0,103.294,50.246Z" transform="translate(25.189 9.997)" fill="#20c5ba"/>
    <path id="Path_26" data-name="Path 26" d="M40.867,66.339h0a49.258,49.258,0,0,1,13.709-6.854,19.267,19.267,0,0,1-5.364-13.112v-.6a37.743,37.743,0,0,0-5.364-1.788A42.678,42.678,0,0,0,32.821,42.2a35.563,35.563,0,0,0-11.026,1.788A48.431,48.431,0,0,0,8.682,50.246,6.372,6.372,0,0,0,6,55.611V69.021H38.185A11.458,11.458,0,0,1,40.867,66.339Z" transform="translate(0 9.997)" fill="#20c5ba"/>
  </g>
</svg>
