<svg xmlns="http://www.w3.org/2000/svg" width="103.886" height="103.886" viewBox="0 0 103.886 103.886">
  <g id="layer1" transform="translate(1003.471 32.243)">
    <path id="path859" d="M27.37.529C12.515.529.536,13.317.529,28.919.516,38.941,4.087,48.072,9.281,56.084c.431,5.077,2.511,9.481,4.5,13.165,2.228,4.132,4.166,7.169,4.166,9.195h-.1a1.732,1.732,0,0,0-1.738,1.725v5.2A1.732,1.732,0,0,0,14.381,87.1v15.58a1.732,1.732,0,0,0,1.725,1.738h72.73a1.731,1.731,0,0,0,1.724-1.738V87.1a1.731,1.731,0,0,0-1.724-1.725v-5.2A1.732,1.732,0,0,0,87.1,78.444H85.562c.44-1.986,1.635-3.653,3.067-6.314a28.918,28.918,0,0,0,3.378-10.875c7.107-9.163,12.422-20.093,12.407-32.336C104.408,13.317,92.43.529,77.574.529c-14.517,0-23.207,6.527-25.1,8.1C50.577,7.056,41.887.529,27.37.529Zm25.1,19.046A1.721,1.721,0,0,1,54.2,21.3V38.621a1.731,1.731,0,1,0,3.463,0V26.5a1.731,1.731,0,0,1,3.463,0v15.58a1.731,1.731,0,1,0,3.463,0V33.433a1.73,1.73,0,1,1,3.459-.014c0,4.089,0,8.036,0,12.276,0,7.457-1.669,11.453-3.257,14.4-1.415,2.63-3.081,4.861-3.537,7.954H43.91c0-3.244-2.427-6.84-4.575-10.825s-4.18-8.465-4.18-13.408c0-2.641.014-5.261.014-7.9a2.6,2.6,0,0,1,5.191.108v7.795a1.732,1.732,0,0,0,.96,1.545s5.969,3.062,5.969,8.833a1.725,1.725,0,1,0,3.449,0c0-6.785-5.557-10.519-6.916-11.376q0-9.029,0-18.058a1.727,1.727,0,0,1,3.453-.051V36.889a1.731,1.731,0,1,0,3.463,0c.019-5.292,0-10.968,0-15.59A1.709,1.709,0,0,1,52.465,19.575Zm-22.5,12.12A1.719,1.719,0,0,1,31.7,33.42v2.5c0,.035-.014.067-.014.1v7.795c0,5.877,2.358,10.914,4.586,15.045s4.17,7.164,4.17,9.188h-.091a1.732,1.732,0,0,0-1.738,1.742v5.188a1.732,1.732,0,0,0-1.725,1.725v1.738l-15.485,0c0-3.246-2.427-6.844-4.575-10.828s-4.18-8.461-4.18-13.4v-7.8a2.6,2.6,0,0,1,5.2,0v7.8a1.731,1.731,0,0,0,.96,1.545s5.969,3.062,5.969,8.833a1.725,1.725,0,1,0,3.449,0c0-6.785-5.553-10.519-6.912-11.376V36.882a1.727,1.727,0,0,1,3.453-.051V49.009a1.733,1.733,0,0,0,3.466,0q.006-6.066.007-12.127c0-.023-.007-.044-.007-.068v-3.4A1.71,1.71,0,0,1,29.964,31.695Zm43.279,0a1.72,1.72,0,0,1,1.738,1.725V50.734a1.731,1.731,0,1,0,3.463,0V38.617a1.731,1.731,0,0,1,3.463,0V52.472a1.719,1.719,0,0,0,2.37,1.623,1.629,1.629,0,0,0,1.1-1.623V43.818a1.73,1.73,0,1,1,3.459,0V56.087c0,7.457-1.669,11.457-3.257,14.406-1.415,2.629-3.08,4.859-3.537,7.95H68.052V76.705a1.732,1.732,0,0,0-1.725-1.725V69.793a1.714,1.714,0,0,0-1.549-1.7c.434-2,1.633-3.677,3.074-6.354,1.871-3.476,3.666-8.064,3.666-16.039V33.426A1.71,1.71,0,0,1,73.243,31.695ZM42.08,71.518H62.864v3.463H42.08Zm-1.724,6.926H64.589v22.509H40.356ZM19.568,81.91H36.889v3.463H19.568Zm48.483,0H85.373v3.463H68.052ZM17.843,88.836H36.893v12.117H17.843Zm50.208,0H87.1v12.117H68.052Z" transform="translate(-1004 -32.772)" fill="#1c921c"/>
  </g>
</svg>
