<svg xmlns="http://www.w3.org/2000/svg" width="113.117" height="112.375" viewBox="0 0 113.117 112.375">
  <g id="_3448008_campaign_conversion_generation_lead_marketing_icon" data-name="3448008_campaign_conversion_generation_lead_marketing_icon" transform="translate(-44.358 -45.747)">
    <path id="Path_27" data-name="Path 27" d="M68.836,288.759a1.81,1.81,0,0,0-2.9.245L52.022,311.488a1.81,1.81,0,0,0,.16,2.125l9.01,10.606-4.932,4.141a1.9,1.9,0,0,1-2.671-.228l-5.153-6.094a1.893,1.893,0,0,1,.171-2.63l.907-.828a1.81,1.81,0,0,0-2.44-2.675l-.907.827a5.5,5.5,0,0,0-.5,7.643l5.153,6.094a5.521,5.521,0,0,0,7.067,1.157l6.482,3.391a6.027,6.027,0,0,0,6.252-.316l2.977-2.013a1.81,1.81,0,0,0,.054-2.961l-3.333-2.437a1.81,1.81,0,1,0-2.137,2.923l1.255.918-.845.572a2.426,2.426,0,0,1-2.527.117l-5.113-2.674L64.7,326l24.7-10.306a1.81,1.81,0,0,0,.66-2.868Zm-4.563,33.5-8.479-9.982,11.94-19.29,17.937,20.342Z" transform="translate(0 -177.62)" fill="#ce3535"/>
    <path id="Path_28" data-name="Path 28" d="M187.207,312a1.8,1.8,0,0,0,1.205-.46L191,309.234a1.81,1.81,0,1,0-2.412-2.7L186,308.843A1.81,1.81,0,0,0,187.207,312Z" transform="translate(-103.347 -190.758)" fill="#ce3535"/>
    <path id="Path_29" data-name="Path 29" d="M218.9,348.941l-3.391.718a1.81,1.81,0,0,0,.373,3.582,1.837,1.837,0,0,0,.377-.04l3.391-.718a1.81,1.81,0,1,0-.749-3.542Z" transform="translate(-124.362 -222.14)" fill="#ce3535"/>
    <path id="Path_30" data-name="Path 30" d="M155.852,277.322a1.808,1.808,0,0,0,2.388-.922l1.4-3.169a1.81,1.81,0,0,0-3.31-1.467l-1.4,3.169A1.811,1.811,0,0,0,155.852,277.322Z" transform="translate(-80.909 -164.828)" fill="#ce3535"/>
    <path id="Path_31" data-name="Path 31" d="M356.789,204.665a27.454,27.454,0,0,0-5.9-6.831,1.81,1.81,0,0,0-2.315,2.784,23.814,23.814,0,0,1,4.729,5.314,48.4,48.4,0,0,1-16.331,12.02v-.866a29.7,29.7,0,0,0-10.74-22.9,1.811,1.811,0,0,0-2.315,2.784,26.087,26.087,0,0,1,9.435,20.115v3.189a26.453,26.453,0,0,0,.127,1.085,1.808,1.808,0,0,0,2.35,1.015,52.29,52.29,0,0,0,20.709-14.631,4.446,4.446,0,0,0,.25-3.08Z" transform="translate(-204.373 -108.465)" fill="#ce3535"/>
    <path id="Path_32" data-name="Path 32" d="M372.249,75.263a13.388,13.388,0,1,1,2.7,26.5,13.3,13.3,0,0,1-7.736-2.46,1.81,1.81,0,0,0-2.1,2.953,17.008,17.008,0,1,0,9.831-30.888,17.094,17.094,0,0,0-3.426.346,1.81,1.81,0,0,0,.726,3.547Z" transform="translate(-234.482 -18.776)" fill="#ce3535"/>
    <path id="Path_33" data-name="Path 33" d="M259.817,82.438a18.346,18.346,0,1,0-18.346-18.346A18.366,18.366,0,0,0,259.817,82.438Zm0-33.07a14.725,14.725,0,1,1-14.725,14.725A14.742,14.742,0,0,1,259.817,49.368Z" transform="translate(-144.437)" fill="#ce3535"/>
    <path id="Path_34" data-name="Path 34" d="M213.152,221.971a38.17,38.17,0,0,1-17.719-2.306v-2.577a26.087,26.087,0,0,1,9.434-20.115,1.81,1.81,0,0,0-2.315-2.784,29.7,29.7,0,0,0-10.74,22.9v.981a52.448,52.448,0,0,1-15.878-11.644,23.815,23.815,0,0,1,5.04-5.8,1.81,1.81,0,0,0-2.315-2.784,27.432,27.432,0,0,0-6.25,7.421A6.391,6.391,0,0,0,173,208.6a56.486,56.486,0,0,0,19.232,13.671,41.764,41.764,0,0,0,21.3,3.3,1.81,1.81,0,1,0-.388-3.6Z" transform="translate(-93.654 -108.466)" fill="#ce3535"/>
    <path id="Path_35" data-name="Path 35" d="M172.462,105.387a16.9,16.9,0,0,0,9.831-3.127,1.81,1.81,0,1,0-2.1-2.953,13.388,13.388,0,1,1-7.736-24.314,13.492,13.492,0,0,1,2.7.272,1.81,1.81,0,1,0,.726-3.546,17.009,17.009,0,1,0-3.426,33.669Z" transform="translate(-81.407 -18.777)" fill="#ce3535"/>
  </g>
</svg>
