<svg xmlns="http://www.w3.org/2000/svg" xmlns:xlink="http://www.w3.org/1999/xlink" width="182" height="317" viewBox="0 0 182 317">
  <defs>
    <clipPath id="clip-path">
      <rect width="182" height="317" fill="none"/>
    </clipPath>
  </defs>
  <g id="Background_dots" data-name="Background dots" transform="translate(-199 -1202.881)">
    <g id="Repeat_Grid_1" data-name="Repeat Grid 1" transform="translate(199 1202.881)" opacity="0.83" clip-path="url(#clip-path)">
      <g transform="translate(-235 -1183.881)">
        <circle id="Ellipse_1" data-name="Ellipse 1" cx="6" cy="6" r="6" transform="translate(235 1183.881)" fill="#707070"/>
      </g>
      <g transform="translate(-212 -1183.881)">
        <circle id="Ellipse_1-2" data-name="Ellipse 1" cx="6" cy="6" r="6" transform="translate(235 1183.881)" fill="#707070"/>
      </g>
      <g transform="translate(-189 -1183.881)">
        <circle id="Ellipse_1-3" data-name="Ellipse 1" cx="6" cy="6" r="6" transform="translate(235 1183.881)" fill="#707070"/>
      </g>
      <g transform="translate(-166 -1183.881)">
        <circle id="Ellipse_1-4" data-name="Ellipse 1" cx="6" cy="6" r="6" transform="translate(235 1183.881)" fill="#707070"/>
      </g>
      <g transform="translate(-143 -1183.881)">
        <circle id="Ellipse_1-5" data-name="Ellipse 1" cx="6" cy="6" r="6" transform="translate(235 1183.881)" fill="#707070"/>
      </g>
      <g transform="translate(-120 -1183.881)">
        <circle id="Ellipse_1-6" data-name="Ellipse 1" cx="6" cy="6" r="6" transform="translate(235 1183.881)" fill="#707070"/>
      </g>
      <g transform="translate(-97 -1183.881)">
        <circle id="Ellipse_1-7" data-name="Ellipse 1" cx="6" cy="6" r="6" transform="translate(235 1183.881)" fill="#707070"/>
      </g>
      <g transform="translate(-74 -1183.881)">
        <circle id="Ellipse_1-8" data-name="Ellipse 1" cx="6" cy="6" r="6" transform="translate(235 1183.881)" fill="#707070"/>
      </g>
      <g transform="translate(-235 -1160.881)">
        <circle id="Ellipse_1-9" data-name="Ellipse 1" cx="6" cy="6" r="6" transform="translate(235 1183.881)" fill="#707070"/>
      </g>
      <g transform="translate(-212 -1160.881)">
        <circle id="Ellipse_1-10" data-name="Ellipse 1" cx="6" cy="6" r="6" transform="translate(235 1183.881)" fill="#707070"/>
      </g>
      <g transform="translate(-189 -1160.881)">
        <circle id="Ellipse_1-11" data-name="Ellipse 1" cx="6" cy="6" r="6" transform="translate(235 1183.881)" fill="#707070"/>
      </g>
      <g transform="translate(-166 -1160.881)">
        <circle id="Ellipse_1-12" data-name="Ellipse 1" cx="6" cy="6" r="6" transform="translate(235 1183.881)" fill="#707070"/>
      </g>
      <g transform="translate(-143 -1160.881)">
        <circle id="Ellipse_1-13" data-name="Ellipse 1" cx="6" cy="6" r="6" transform="translate(235 1183.881)" fill="#707070"/>
      </g>
      <g transform="translate(-120 -1160.881)">
        <circle id="Ellipse_1-14" data-name="Ellipse 1" cx="6" cy="6" r="6" transform="translate(235 1183.881)" fill="#707070"/>
      </g>
      <g transform="translate(-97 -1160.881)">
        <circle id="Ellipse_1-15" data-name="Ellipse 1" cx="6" cy="6" r="6" transform="translate(235 1183.881)" fill="#707070"/>
      </g>
      <g transform="translate(-74 -1160.881)">
        <circle id="Ellipse_1-16" data-name="Ellipse 1" cx="6" cy="6" r="6" transform="translate(235 1183.881)" fill="#707070"/>
      </g>
      <g transform="translate(-235 -1137.881)">
        <circle id="Ellipse_1-17" data-name="Ellipse 1" cx="6" cy="6" r="6" transform="translate(235 1183.881)" fill="#707070"/>
      </g>
      <g transform="translate(-212 -1137.881)">
        <circle id="Ellipse_1-18" data-name="Ellipse 1" cx="6" cy="6" r="6" transform="translate(235 1183.881)" fill="#707070"/>
      </g>
      <g transform="translate(-189 -1137.881)">
        <circle id="Ellipse_1-19" data-name="Ellipse 1" cx="6" cy="6" r="6" transform="translate(235 1183.881)" fill="#707070"/>
      </g>
      <g transform="translate(-166 -1137.881)">
        <circle id="Ellipse_1-20" data-name="Ellipse 1" cx="6" cy="6" r="6" transform="translate(235 1183.881)" fill="#707070"/>
      </g>
      <g transform="translate(-143 -1137.881)">
        <circle id="Ellipse_1-21" data-name="Ellipse 1" cx="6" cy="6" r="6" transform="translate(235 1183.881)" fill="#707070"/>
      </g>
      <g transform="translate(-120 -1137.881)">
        <circle id="Ellipse_1-22" data-name="Ellipse 1" cx="6" cy="6" r="6" transform="translate(235 1183.881)" fill="#707070"/>
      </g>
      <g transform="translate(-97 -1137.881)">
        <circle id="Ellipse_1-23" data-name="Ellipse 1" cx="6" cy="6" r="6" transform="translate(235 1183.881)" fill="#707070"/>
      </g>
      <g transform="translate(-74 -1137.881)">
        <circle id="Ellipse_1-24" data-name="Ellipse 1" cx="6" cy="6" r="6" transform="translate(235 1183.881)" fill="#707070"/>
      </g>
      <g transform="translate(-235 -1114.881)">
        <circle id="Ellipse_1-25" data-name="Ellipse 1" cx="6" cy="6" r="6" transform="translate(235 1183.881)" fill="#707070"/>
      </g>
      <g transform="translate(-212 -1114.881)">
        <circle id="Ellipse_1-26" data-name="Ellipse 1" cx="6" cy="6" r="6" transform="translate(235 1183.881)" fill="#707070"/>
      </g>
      <g transform="translate(-189 -1114.881)">
        <circle id="Ellipse_1-27" data-name="Ellipse 1" cx="6" cy="6" r="6" transform="translate(235 1183.881)" fill="#707070"/>
      </g>
      <g transform="translate(-166 -1114.881)">
        <circle id="Ellipse_1-28" data-name="Ellipse 1" cx="6" cy="6" r="6" transform="translate(235 1183.881)" fill="#707070"/>
      </g>
      <g transform="translate(-143 -1114.881)">
        <circle id="Ellipse_1-29" data-name="Ellipse 1" cx="6" cy="6" r="6" transform="translate(235 1183.881)" fill="#707070"/>
      </g>
      <g transform="translate(-120 -1114.881)">
        <circle id="Ellipse_1-30" data-name="Ellipse 1" cx="6" cy="6" r="6" transform="translate(235 1183.881)" fill="#707070"/>
      </g>
      <g transform="translate(-97 -1114.881)">
        <circle id="Ellipse_1-31" data-name="Ellipse 1" cx="6" cy="6" r="6" transform="translate(235 1183.881)" fill="#707070"/>
      </g>
      <g transform="translate(-74 -1114.881)">
        <circle id="Ellipse_1-32" data-name="Ellipse 1" cx="6" cy="6" r="6" transform="translate(235 1183.881)" fill="#707070"/>
      </g>
      <g transform="translate(-235 -1091.881)">
        <circle id="Ellipse_1-33" data-name="Ellipse 1" cx="6" cy="6" r="6" transform="translate(235 1183.881)" fill="#707070"/>
      </g>
      <g transform="translate(-212 -1091.881)">
        <circle id="Ellipse_1-34" data-name="Ellipse 1" cx="6" cy="6" r="6" transform="translate(235 1183.881)" fill="#707070"/>
      </g>
      <g transform="translate(-189 -1091.881)">
        <circle id="Ellipse_1-35" data-name="Ellipse 1" cx="6" cy="6" r="6" transform="translate(235 1183.881)" fill="#707070"/>
      </g>
      <g transform="translate(-166 -1091.881)">
        <circle id="Ellipse_1-36" data-name="Ellipse 1" cx="6" cy="6" r="6" transform="translate(235 1183.881)" fill="#707070"/>
      </g>
      <g transform="translate(-143 -1091.881)">
        <circle id="Ellipse_1-37" data-name="Ellipse 1" cx="6" cy="6" r="6" transform="translate(235 1183.881)" fill="#707070"/>
      </g>
      <g transform="translate(-120 -1091.881)">
        <circle id="Ellipse_1-38" data-name="Ellipse 1" cx="6" cy="6" r="6" transform="translate(235 1183.881)" fill="#707070"/>
      </g>
      <g transform="translate(-97 -1091.881)">
        <circle id="Ellipse_1-39" data-name="Ellipse 1" cx="6" cy="6" r="6" transform="translate(235 1183.881)" fill="#707070"/>
      </g>
      <g transform="translate(-74 -1091.881)">
        <circle id="Ellipse_1-40" data-name="Ellipse 1" cx="6" cy="6" r="6" transform="translate(235 1183.881)" fill="#707070"/>
      </g>
      <g transform="translate(-235 -1068.881)">
        <circle id="Ellipse_1-41" data-name="Ellipse 1" cx="6" cy="6" r="6" transform="translate(235 1183.881)" fill="#707070"/>
      </g>
      <g transform="translate(-212 -1068.881)">
        <circle id="Ellipse_1-42" data-name="Ellipse 1" cx="6" cy="6" r="6" transform="translate(235 1183.881)" fill="#707070"/>
      </g>
      <g transform="translate(-189 -1068.881)">
        <circle id="Ellipse_1-43" data-name="Ellipse 1" cx="6" cy="6" r="6" transform="translate(235 1183.881)" fill="#707070"/>
      </g>
      <g transform="translate(-166 -1068.881)">
        <circle id="Ellipse_1-44" data-name="Ellipse 1" cx="6" cy="6" r="6" transform="translate(235 1183.881)" fill="#707070"/>
      </g>
      <g transform="translate(-143 -1068.881)">
        <circle id="Ellipse_1-45" data-name="Ellipse 1" cx="6" cy="6" r="6" transform="translate(235 1183.881)" fill="#707070"/>
      </g>
      <g transform="translate(-120 -1068.881)">
        <circle id="Ellipse_1-46" data-name="Ellipse 1" cx="6" cy="6" r="6" transform="translate(235 1183.881)" fill="#707070"/>
      </g>
      <g transform="translate(-97 -1068.881)">
        <circle id="Ellipse_1-47" data-name="Ellipse 1" cx="6" cy="6" r="6" transform="translate(235 1183.881)" fill="#707070"/>
      </g>
      <g transform="translate(-74 -1068.881)">
        <circle id="Ellipse_1-48" data-name="Ellipse 1" cx="6" cy="6" r="6" transform="translate(235 1183.881)" fill="#707070"/>
      </g>
      <g transform="translate(-235 -1045.881)">
        <circle id="Ellipse_1-49" data-name="Ellipse 1" cx="6" cy="6" r="6" transform="translate(235 1183.881)" fill="#707070"/>
      </g>
      <g transform="translate(-212 -1045.881)">
        <circle id="Ellipse_1-50" data-name="Ellipse 1" cx="6" cy="6" r="6" transform="translate(235 1183.881)" fill="#707070"/>
      </g>
      <g transform="translate(-189 -1045.881)">
        <circle id="Ellipse_1-51" data-name="Ellipse 1" cx="6" cy="6" r="6" transform="translate(235 1183.881)" fill="#707070"/>
      </g>
      <g transform="translate(-166 -1045.881)">
        <circle id="Ellipse_1-52" data-name="Ellipse 1" cx="6" cy="6" r="6" transform="translate(235 1183.881)" fill="#707070"/>
      </g>
      <g transform="translate(-143 -1045.881)">
        <circle id="Ellipse_1-53" data-name="Ellipse 1" cx="6" cy="6" r="6" transform="translate(235 1183.881)" fill="#707070"/>
      </g>
      <g transform="translate(-120 -1045.881)">
        <circle id="Ellipse_1-54" data-name="Ellipse 1" cx="6" cy="6" r="6" transform="translate(235 1183.881)" fill="#707070"/>
      </g>
      <g transform="translate(-97 -1045.881)">
        <circle id="Ellipse_1-55" data-name="Ellipse 1" cx="6" cy="6" r="6" transform="translate(235 1183.881)" fill="#707070"/>
      </g>
      <g transform="translate(-74 -1045.881)">
        <circle id="Ellipse_1-56" data-name="Ellipse 1" cx="6" cy="6" r="6" transform="translate(235 1183.881)" fill="#707070"/>
      </g>
      <g transform="translate(-235 -1022.881)">
        <circle id="Ellipse_1-57" data-name="Ellipse 1" cx="6" cy="6" r="6" transform="translate(235 1183.881)" fill="#707070"/>
      </g>
      <g transform="translate(-212 -1022.881)">
        <circle id="Ellipse_1-58" data-name="Ellipse 1" cx="6" cy="6" r="6" transform="translate(235 1183.881)" fill="#707070"/>
      </g>
      <g transform="translate(-189 -1022.881)">
        <circle id="Ellipse_1-59" data-name="Ellipse 1" cx="6" cy="6" r="6" transform="translate(235 1183.881)" fill="#707070"/>
      </g>
      <g transform="translate(-166 -1022.881)">
        <circle id="Ellipse_1-60" data-name="Ellipse 1" cx="6" cy="6" r="6" transform="translate(235 1183.881)" fill="#707070"/>
      </g>
      <g transform="translate(-143 -1022.881)">
        <circle id="Ellipse_1-61" data-name="Ellipse 1" cx="6" cy="6" r="6" transform="translate(235 1183.881)" fill="#707070"/>
      </g>
      <g transform="translate(-120 -1022.881)">
        <circle id="Ellipse_1-62" data-name="Ellipse 1" cx="6" cy="6" r="6" transform="translate(235 1183.881)" fill="#707070"/>
      </g>
      <g transform="translate(-97 -1022.881)">
        <circle id="Ellipse_1-63" data-name="Ellipse 1" cx="6" cy="6" r="6" transform="translate(235 1183.881)" fill="#707070"/>
      </g>
      <g transform="translate(-74 -1022.881)">
        <circle id="Ellipse_1-64" data-name="Ellipse 1" cx="6" cy="6" r="6" transform="translate(235 1183.881)" fill="#707070"/>
      </g>
      <g transform="translate(-235 -999.881)">
        <circle id="Ellipse_1-65" data-name="Ellipse 1" cx="6" cy="6" r="6" transform="translate(235 1183.881)" fill="#707070"/>
      </g>
      <g transform="translate(-212 -999.881)">
        <circle id="Ellipse_1-66" data-name="Ellipse 1" cx="6" cy="6" r="6" transform="translate(235 1183.881)" fill="#707070"/>
      </g>
      <g transform="translate(-189 -999.881)">
        <circle id="Ellipse_1-67" data-name="Ellipse 1" cx="6" cy="6" r="6" transform="translate(235 1183.881)" fill="#707070"/>
      </g>
      <g transform="translate(-166 -999.881)">
        <circle id="Ellipse_1-68" data-name="Ellipse 1" cx="6" cy="6" r="6" transform="translate(235 1183.881)" fill="#707070"/>
      </g>
      <g transform="translate(-143 -999.881)">
        <circle id="Ellipse_1-69" data-name="Ellipse 1" cx="6" cy="6" r="6" transform="translate(235 1183.881)" fill="#707070"/>
      </g>
      <g transform="translate(-120 -999.881)">
        <circle id="Ellipse_1-70" data-name="Ellipse 1" cx="6" cy="6" r="6" transform="translate(235 1183.881)" fill="#707070"/>
      </g>
      <g transform="translate(-97 -999.881)">
        <circle id="Ellipse_1-71" data-name="Ellipse 1" cx="6" cy="6" r="6" transform="translate(235 1183.881)" fill="#707070"/>
      </g>
      <g transform="translate(-74 -999.881)">
        <circle id="Ellipse_1-72" data-name="Ellipse 1" cx="6" cy="6" r="6" transform="translate(235 1183.881)" fill="#707070"/>
      </g>
      <g transform="translate(-235 -976.881)">
        <circle id="Ellipse_1-73" data-name="Ellipse 1" cx="6" cy="6" r="6" transform="translate(235 1183.881)" fill="#707070"/>
      </g>
      <g transform="translate(-212 -976.881)">
        <circle id="Ellipse_1-74" data-name="Ellipse 1" cx="6" cy="6" r="6" transform="translate(235 1183.881)" fill="#707070"/>
      </g>
      <g transform="translate(-189 -976.881)">
        <circle id="Ellipse_1-75" data-name="Ellipse 1" cx="6" cy="6" r="6" transform="translate(235 1183.881)" fill="#707070"/>
      </g>
      <g transform="translate(-166 -976.881)">
        <circle id="Ellipse_1-76" data-name="Ellipse 1" cx="6" cy="6" r="6" transform="translate(235 1183.881)" fill="#707070"/>
      </g>
      <g transform="translate(-143 -976.881)">
        <circle id="Ellipse_1-77" data-name="Ellipse 1" cx="6" cy="6" r="6" transform="translate(235 1183.881)" fill="#707070"/>
      </g>
      <g transform="translate(-120 -976.881)">
        <circle id="Ellipse_1-78" data-name="Ellipse 1" cx="6" cy="6" r="6" transform="translate(235 1183.881)" fill="#707070"/>
      </g>
      <g transform="translate(-97 -976.881)">
        <circle id="Ellipse_1-79" data-name="Ellipse 1" cx="6" cy="6" r="6" transform="translate(235 1183.881)" fill="#707070"/>
      </g>
      <g transform="translate(-74 -976.881)">
        <circle id="Ellipse_1-80" data-name="Ellipse 1" cx="6" cy="6" r="6" transform="translate(235 1183.881)" fill="#707070"/>
      </g>
      <g transform="translate(-235 -953.881)">
        <circle id="Ellipse_1-81" data-name="Ellipse 1" cx="6" cy="6" r="6" transform="translate(235 1183.881)" fill="#707070"/>
      </g>
      <g transform="translate(-212 -953.881)">
        <circle id="Ellipse_1-82" data-name="Ellipse 1" cx="6" cy="6" r="6" transform="translate(235 1183.881)" fill="#707070"/>
      </g>
      <g transform="translate(-189 -953.881)">
        <circle id="Ellipse_1-83" data-name="Ellipse 1" cx="6" cy="6" r="6" transform="translate(235 1183.881)" fill="#707070"/>
      </g>
      <g transform="translate(-166 -953.881)">
        <circle id="Ellipse_1-84" data-name="Ellipse 1" cx="6" cy="6" r="6" transform="translate(235 1183.881)" fill="#707070"/>
      </g>
      <g transform="translate(-143 -953.881)">
        <circle id="Ellipse_1-85" data-name="Ellipse 1" cx="6" cy="6" r="6" transform="translate(235 1183.881)" fill="#707070"/>
      </g>
      <g transform="translate(-120 -953.881)">
        <circle id="Ellipse_1-86" data-name="Ellipse 1" cx="6" cy="6" r="6" transform="translate(235 1183.881)" fill="#707070"/>
      </g>
      <g transform="translate(-97 -953.881)">
        <circle id="Ellipse_1-87" data-name="Ellipse 1" cx="6" cy="6" r="6" transform="translate(235 1183.881)" fill="#707070"/>
      </g>
      <g transform="translate(-74 -953.881)">
        <circle id="Ellipse_1-88" data-name="Ellipse 1" cx="6" cy="6" r="6" transform="translate(235 1183.881)" fill="#707070"/>
      </g>
      <g transform="translate(-235 -930.881)">
        <circle id="Ellipse_1-89" data-name="Ellipse 1" cx="6" cy="6" r="6" transform="translate(235 1183.881)" fill="#707070"/>
      </g>
      <g transform="translate(-212 -930.881)">
        <circle id="Ellipse_1-90" data-name="Ellipse 1" cx="6" cy="6" r="6" transform="translate(235 1183.881)" fill="#707070"/>
      </g>
      <g transform="translate(-189 -930.881)">
        <circle id="Ellipse_1-91" data-name="Ellipse 1" cx="6" cy="6" r="6" transform="translate(235 1183.881)" fill="#707070"/>
      </g>
      <g transform="translate(-166 -930.881)">
        <circle id="Ellipse_1-92" data-name="Ellipse 1" cx="6" cy="6" r="6" transform="translate(235 1183.881)" fill="#707070"/>
      </g>
      <g transform="translate(-143 -930.881)">
        <circle id="Ellipse_1-93" data-name="Ellipse 1" cx="6" cy="6" r="6" transform="translate(235 1183.881)" fill="#707070"/>
      </g>
      <g transform="translate(-120 -930.881)">
        <circle id="Ellipse_1-94" data-name="Ellipse 1" cx="6" cy="6" r="6" transform="translate(235 1183.881)" fill="#707070"/>
      </g>
      <g transform="translate(-97 -930.881)">
        <circle id="Ellipse_1-95" data-name="Ellipse 1" cx="6" cy="6" r="6" transform="translate(235 1183.881)" fill="#707070"/>
      </g>
      <g transform="translate(-74 -930.881)">
        <circle id="Ellipse_1-96" data-name="Ellipse 1" cx="6" cy="6" r="6" transform="translate(235 1183.881)" fill="#707070"/>
      </g>
      <g transform="translate(-235 -907.881)">
        <circle id="Ellipse_1-97" data-name="Ellipse 1" cx="6" cy="6" r="6" transform="translate(235 1183.881)" fill="#707070"/>
      </g>
      <g transform="translate(-212 -907.881)">
        <circle id="Ellipse_1-98" data-name="Ellipse 1" cx="6" cy="6" r="6" transform="translate(235 1183.881)" fill="#707070"/>
      </g>
      <g transform="translate(-189 -907.881)">
        <circle id="Ellipse_1-99" data-name="Ellipse 1" cx="6" cy="6" r="6" transform="translate(235 1183.881)" fill="#707070"/>
      </g>
      <g transform="translate(-166 -907.881)">
        <circle id="Ellipse_1-100" data-name="Ellipse 1" cx="6" cy="6" r="6" transform="translate(235 1183.881)" fill="#707070"/>
      </g>
      <g transform="translate(-143 -907.881)">
        <circle id="Ellipse_1-101" data-name="Ellipse 1" cx="6" cy="6" r="6" transform="translate(235 1183.881)" fill="#707070"/>
      </g>
      <g transform="translate(-120 -907.881)">
        <circle id="Ellipse_1-102" data-name="Ellipse 1" cx="6" cy="6" r="6" transform="translate(235 1183.881)" fill="#707070"/>
      </g>
      <g transform="translate(-97 -907.881)">
        <circle id="Ellipse_1-103" data-name="Ellipse 1" cx="6" cy="6" r="6" transform="translate(235 1183.881)" fill="#707070"/>
      </g>
      <g transform="translate(-74 -907.881)">
        <circle id="Ellipse_1-104" data-name="Ellipse 1" cx="6" cy="6" r="6" transform="translate(235 1183.881)" fill="#707070"/>
      </g>
      <g transform="translate(-235 -884.881)">
        <circle id="Ellipse_1-105" data-name="Ellipse 1" cx="6" cy="6" r="6" transform="translate(235 1183.881)" fill="#707070"/>
      </g>
      <g transform="translate(-212 -884.881)">
        <circle id="Ellipse_1-106" data-name="Ellipse 1" cx="6" cy="6" r="6" transform="translate(235 1183.881)" fill="#707070"/>
      </g>
      <g transform="translate(-189 -884.881)">
        <circle id="Ellipse_1-107" data-name="Ellipse 1" cx="6" cy="6" r="6" transform="translate(235 1183.881)" fill="#707070"/>
      </g>
      <g transform="translate(-166 -884.881)">
        <circle id="Ellipse_1-108" data-name="Ellipse 1" cx="6" cy="6" r="6" transform="translate(235 1183.881)" fill="#707070"/>
      </g>
      <g transform="translate(-143 -884.881)">
        <circle id="Ellipse_1-109" data-name="Ellipse 1" cx="6" cy="6" r="6" transform="translate(235 1183.881)" fill="#707070"/>
      </g>
      <g transform="translate(-120 -884.881)">
        <circle id="Ellipse_1-110" data-name="Ellipse 1" cx="6" cy="6" r="6" transform="translate(235 1183.881)" fill="#707070"/>
      </g>
      <g transform="translate(-97 -884.881)">
        <circle id="Ellipse_1-111" data-name="Ellipse 1" cx="6" cy="6" r="6" transform="translate(235 1183.881)" fill="#707070"/>
      </g>
      <g transform="translate(-74 -884.881)">
        <circle id="Ellipse_1-112" data-name="Ellipse 1" cx="6" cy="6" r="6" transform="translate(235 1183.881)" fill="#707070"/>
      </g>
    </g>
  </g>
</svg>
