<svg xmlns="http://www.w3.org/2000/svg" width="168.174" height="168.174" viewBox="0 0 168.174 168.174">
  <path id="Path_11" data-name="Path 11" d="M177.341,216.194a83.087,83.087,0,0,1-19.409-2.447c-21.932-5.292-44.516-18.715-63.582-37.8s-32.506-41.671-37.8-63.582C50.98,89.319,54.954,69.6,67.729,56.825l3.648-3.648a17.652,17.652,0,0,1,24.939,0l20.961,20.957a17.644,17.644,0,0,1,0,24.939L104.9,111.451a146,146,0,0,0,23.55,30.381,146.154,146.154,0,0,0,30.385,23.555l12.378-12.382a17.631,17.631,0,0,1,24.939,0L217.1,173.962a17.636,17.636,0,0,1,0,24.935l-3.652,3.648C204.447,211.568,191.982,216.194,177.341,216.194ZM83.846,60.561a5.02,5.02,0,0,0-3.593,1.489L76.6,65.7c-9.567,9.567-12.361,25.1-7.868,43.708,4.756,19.715,17,40.2,34.472,57.667s37.953,29.7,57.671,34.472c18.614,4.493,34.138,1.7,43.7-7.868l3.648-3.648a5.087,5.087,0,0,0,0-7.191l-20.953-20.957a5.087,5.087,0,0,0-7.191,0l-15.691,15.691a6.274,6.274,0,0,1-7.32,1.138,154.931,154.931,0,0,1-37.5-28.005,155.309,155.309,0,0,1-28-37.492,6.275,6.275,0,0,1,1.134-7.32L108.4,90.2a5.087,5.087,0,0,0,0-7.191L87.444,62.05a5.049,5.049,0,0,0-3.6-1.489Z" transform="translate(-54.094 -48.02)"/>
</svg>
