<svg xmlns="http://www.w3.org/2000/svg" width="80.5" height="80.5" viewBox="0 0 80.5 80.5">
  <path id="_5279111_network_fb_social_media_facebook_facebook_logo_icon" data-name="5279111_network_fb_social media_facebook_facebook logo_icon" d="M40.1,80.5h0Zm.284,0h0Zm-.407,0h0Zm.537,0h0Zm-.655,0h0Zm.785,0h0Zm.13,0h0Zm-1.066,0h0Zm1.2,0h0Zm-1.321,0h0Zm1.451,0h0Zm-1.57,0h0Zm-.147,0h0Zm1.847,0h0Zm-1.976,0h0Zm2.105,0h0Zm.129,0h0Zm-2.353,0h0Zm-.113,0h0Zm2.6,0h0Zm.129,0h-.018l.054,0Zm-2.888,0,.054,0h-.054Zm-.118,0,.057,0H38.67Zm3.135,0h-.032l.057,0Zm-3.251-.006.056,0-.044,0Zm3.38,0-.044,0,.056,0h-.012Zm-3.542-.008.06,0h-.015Zm3.67,0h-.015l.06,0-.045,0Zm-3.787-.008.062,0h-.029Zm3.915,0h-.029l.062,0Zm-4.03-.007.062,0-.044,0Zm4.158,0-.044,0,.062,0Zm.129-.007-.057,0,.05,0,.059,0-.053,0Zm-4.391,0,.05,0-.057,0-.053,0Zm4.519-.008h-.025l.064,0Zm-4.692,0,.064,0h-.025Zm-.114-.007.064,0-.04,0Zm4.934,0-.04,0,.064,0Zm-5.042-.008.057,0-.053,0-.054,0,.05,0Zm5.171,0-.053,0,.057,0,.05,0-.054,0Zm.128-.008h-.019l.061,0-.042,0Zm-5.464,0,.061,0h-.019Zm-.113-.008.06,0-.033,0-.027,0Zm5.706,0-.033,0,.06,0Zm-5.819-.01.055,0-.043,0Zm5.947,0-.043,0,.055,0h-.012Zm-6.1-.012.048,0h-.012Zm6.226,0h-.012l.048,0Zm.128-.01-.023,0,.049,0Zm-6.471,0,.049,0-.023,0-.026,0Zm-.114-.009.042,0-.029,0Zm6.713,0-.029,0,.042,0Zm-6.838-.012h0Zm6.965,0h0Zm.127-.011h-.011l.028,0-.017,0Zm-7.227,0,.028,0h-.011l-.017,0Zm-.118-.011.021,0H36.51Zm7.472,0h-.013l.021,0Zm-10.021-.318a40.25,40.25,0,1,1,12.578,0V51.885h9.379L57.7,40.25H46.539V32.7c0-3.183,1.559-6.286,6.559-6.286h5.075V16.509a61.9,61.9,0,0,0-9.01-.786c-9.194,0-15.2,5.572-15.2,15.66V40.25H23.741V51.885h10.22Z" fill="#fff" fill-rule="evenodd"/>
</svg>
