<svg xmlns="http://www.w3.org/2000/svg" width="80.5" height="80.5" viewBox="0 0 80.5 80.5">
  <path id="_5282544_camera_instagram_social_media_social_network_instagram_logo_icon" data-name="5282544_camera_instagram_social media_social network_instagram logo_icon" d="M70.665,0A9.84,9.84,0,0,1,80.5,9.835v60.83A9.84,9.84,0,0,1,70.665,80.5H9.835A9.84,9.84,0,0,1,0,70.665V9.835A9.84,9.84,0,0,1,9.835,0h60.83ZM40.25,12.735c-7.473,0-8.41.032-11.344.166a20.192,20.192,0,0,0-6.679,1.279,14.069,14.069,0,0,0-8.047,8.047A20.2,20.2,0,0,0,12.9,28.906c-.134,2.935-.165,3.872-.165,11.344s.032,8.41.165,11.344a20.2,20.2,0,0,0,1.279,6.679,14.07,14.07,0,0,0,8.047,8.047A20.2,20.2,0,0,0,28.906,67.6c2.935.134,3.872.166,11.344.166s8.41-.032,11.344-.166a20.2,20.2,0,0,0,6.679-1.279,14.07,14.07,0,0,0,8.047-8.047A20.2,20.2,0,0,0,67.6,51.594c.134-2.935.166-3.872.166-11.344s-.032-8.41-.166-11.344a20.2,20.2,0,0,0-1.279-6.679,14.069,14.069,0,0,0-8.047-8.047A20.192,20.192,0,0,0,51.594,12.9c-2.935-.134-3.872-.166-11.344-.166Zm0,4.958c7.347,0,8.217.028,11.118.16a15.234,15.234,0,0,1,5.109.947A9.112,9.112,0,0,1,61.7,24.023a15.226,15.226,0,0,1,.947,5.109c.132,2.9.161,3.772.161,11.118s-.028,8.217-.161,11.118a15.226,15.226,0,0,1-.947,5.109A9.112,9.112,0,0,1,56.477,61.7a15.226,15.226,0,0,1-5.109.947c-2.9.132-3.771.161-11.118.161s-8.217-.028-11.118-.161a15.226,15.226,0,0,1-5.109-.947A9.112,9.112,0,0,1,18.8,56.477a15.229,15.229,0,0,1-.947-5.109c-.132-2.9-.16-3.772-.16-11.118s.028-8.217.16-11.118a15.229,15.229,0,0,1,.947-5.109A9.112,9.112,0,0,1,24.023,18.8a15.234,15.234,0,0,1,5.109-.947c2.9-.132,3.772-.16,11.118-.16Zm0,8.428A14.129,14.129,0,1,0,54.379,40.25,14.129,14.129,0,0,0,40.25,26.121Zm0,23.3a9.171,9.171,0,1,1,9.171-9.171A9.171,9.171,0,0,1,40.25,49.421ZM58.239,25.563a3.3,3.3,0,1,1-3.3-3.3,3.3,3.3,0,0,1,3.3,3.3Z" fill="#fff" fill-rule="evenodd"/>
</svg>
