<svg id="Icon-Envelope" xmlns="http://www.w3.org/2000/svg" width="190" height="145.177" viewBox="0 0 190 145.177">
  <path id="Fill-3" d="M117.227-207.563,109.69-215.1,39.878-145.288a22.988,22.988,0,0,1-32.129,0L-62.063-214.7l-7.537,7.537L-17.638-155.2-69.6-103.242l7.537,7.536L-10.1-147.668.212-137.355a33.066,33.066,0,0,0,23.4,9.917,33.066,33.066,0,0,0,23.4-9.917l10.313-10.313,51.962,51.962,7.537-7.536L64.868-155.2l52.359-52.359" transform="translate(70.79 227.396)"/>
  <path id="Fill-4" d="M103.44-73.023H-53.24A16.76,16.76,0,0,1-69.9-89.682V-201.54A16.76,16.76,0,0,1-53.24-218.2H103.44a16.76,16.76,0,0,1,16.66,16.66V-89.682a16.76,16.76,0,0,1-16.66,16.66ZM-53.637-207.49a5.423,5.423,0,0,0-5.553,5.553V-90.079a5.423,5.423,0,0,0,5.553,5.553H103.044a5.423,5.423,0,0,0,5.553-5.553V-201.937a5.423,5.423,0,0,0-5.553-5.553Z" transform="translate(69.9 218.2)"/>
</svg>
