<svg xmlns="http://www.w3.org/2000/svg" width="81.6" height="81.6" viewBox="0 0 81.6 81.6">
  <g id="Language_translator" transform="translate(-39.402 -29.902)">
    <path id="Path_1" data-name="Path 1" d="M86.24,333.61H82.52a2.271,2.271,0,0,1-2.267-2.267V318.268a3.367,3.367,0,0,0-5.748-2.381l-7.942,7.942a3.367,3.367,0,0,0,4.761,4.762l2.194-2.193v4.944a9.012,9.012,0,0,0,9,9h3.72a3.367,3.367,0,1,0,0-6.735Z" transform="translate(-21.019 -236.327)"/>
    <path id="Path_2" data-name="Path 2" d="M327.769,74.636H331.5a2.263,2.263,0,0,1,2.26,2.26V89.979a3.367,3.367,0,0,0,5.748,2.381l7.942-7.942a3.367,3.367,0,0,0-4.762-4.762l-2.194,2.193V76.9A9,9,0,0,0,331.5,67.9h-3.727a3.367,3.367,0,0,0,0,6.735Z" transform="translate(-232.586 -30.516)"/>
    <path id="Path_3" data-name="Path 3" d="M328.843,343.215a43.2,43.2,0,0,0,3.115-3.617h-6.233A43.942,43.942,0,0,0,328.843,343.215Z" transform="translate(-232.583 -254.027)"/>
    <path id="Path_4" data-name="Path 4" d="M117.781,64.188H88.791v-31.2A3.155,3.155,0,0,0,85.57,29.9H42.623A3.155,3.155,0,0,0,39.4,32.988V74.131a3.155,3.155,0,0,0,3.221,3.085h28.99v31.2a3.155,3.155,0,0,0,3.221,3.085h42.947A3.155,3.155,0,0,0,121,108.416V67.273a3.155,3.155,0,0,0-3.221-3.085ZM75.926,60.751,66.978,43.608a3.43,3.43,0,0,0-5.763,0L52.267,60.751a3.027,3.027,0,0,0,1.442,4.14,3.288,3.288,0,0,0,4.322-1.381l.9-1.723H69.263l.9,1.723a3.185,3.185,0,0,0,2.354,1.638,3,3,0,0,0-.9,2.126v3.772H45.843V36.073H82.35V64.188H75.424A2.973,2.973,0,0,0,75.926,60.751Zm-9.883-5.135H62.15l1.947-3.73Zm42.791,30.171h-1.713a45.226,45.226,0,0,1-5.951,7.393,31.993,31.993,0,0,0,7.061,3.8,3.044,3.044,0,0,1,1.807,4,3.268,3.268,0,0,1-4.18,1.731,39.068,39.068,0,0,1-9.55-5.3,39.068,39.068,0,0,1-9.55,5.3,3.309,3.309,0,0,1-1.185.219,3.189,3.189,0,0,1-3.164-2.507,3.065,3.065,0,0,1,1.976-3.448,32.164,32.164,0,0,0,7.067-3.79,45.239,45.239,0,0,1-5.957-7.4H83.781a3.088,3.088,0,1,1,0-6.171h9.306V75.845a3.224,3.224,0,0,1,6.441,0v3.772h9.306a3.088,3.088,0,1,1,0,6.171Z" transform="translate(0 0)"/>
  </g>
</svg>
